<svg xmlns="http://www.w3.org/2000/svg" xmlns:xlink="http://www.w3.org/1999/xlink" width="1957" height="492" viewBox="0 0 1957 492"><defs><style>.a{fill:none;}.b{opacity:0.04;clip-path:url(#a);}.c{fill:#fff;}</style><clipPath id="a"><rect class="a" width="1957" height="492"/></clipPath></defs><g class="b"><g transform="translate(642 -686)"><circle class="c" cx="20" cy="20" r="20" transform="translate(-642 686)"/></g><g transform="translate(722 -686)"><circle class="c" cx="20" cy="20" r="20" transform="translate(-642 686)"/></g><g transform="translate(802 -686)"><circle class="c" cx="20" cy="20" r="20" transform="translate(-642 686)"/></g><g transform="translate(882 -686)"><circle class="c" cx="20" cy="20" r="20" transform="translate(-642 686)"/></g><g transform="translate(962 -686)"><circle class="c" cx="20" cy="20" r="20" transform="translate(-642 686)"/></g><g transform="translate(1042 -686)"><circle class="c" cx="20" cy="20" r="20" transform="translate(-642 686)"/></g><g transform="translate(1122 -686)"><circle class="c" cx="20" cy="20" r="20" transform="translate(-642 686)"/></g><g transform="translate(1202 -686)"><circle class="c" cx="20" cy="20" r="20" transform="translate(-642 686)"/></g><g transform="translate(1282 -686)"><circle class="c" cx="20" cy="20" r="20" transform="translate(-642 686)"/></g><g transform="translate(1362 -686)"><circle class="c" cx="20" cy="20" r="20" transform="translate(-642 686)"/></g><g transform="translate(1442 -686)"><circle class="c" cx="20" cy="20" r="20" transform="translate(-642 686)"/></g><g transform="translate(1522 -686)"><circle class="c" cx="20" cy="20" r="20" transform="translate(-642 686)"/></g><g transform="translate(1602 -686)"><circle class="c" cx="20" cy="20" r="20" transform="translate(-642 686)"/></g><g transform="translate(1682 -686)"><circle class="c" cx="20" cy="20" r="20" transform="translate(-642 686)"/></g><g transform="translate(1762 -686)"><circle class="c" cx="20" cy="20" r="20" transform="translate(-642 686)"/></g><g transform="translate(1842 -686)"><circle class="c" cx="20" cy="20" r="20" transform="translate(-642 686)"/></g><g transform="translate(1922 -686)"><circle class="c" cx="20" cy="20" r="20" transform="translate(-642 686)"/></g><g transform="translate(2002 -686)"><circle class="c" cx="20" cy="20" r="20" transform="translate(-642 686)"/></g><g transform="translate(2082 -686)"><circle class="c" cx="20" cy="20" r="20" transform="translate(-642 686)"/></g><g transform="translate(2162 -686)"><circle class="c" cx="20" cy="20" r="20" transform="translate(-642 686)"/></g><g transform="translate(2242 -686)"><circle class="c" cx="20" cy="20" r="20" transform="translate(-642 686)"/></g><g transform="translate(2322 -686)"><circle class="c" cx="20" cy="20" r="20" transform="translate(-642 686)"/></g><g transform="translate(2402 -686)"><circle class="c" cx="20" cy="20" r="20" transform="translate(-642 686)"/></g><g transform="translate(2482 -686)"><circle class="c" cx="20" cy="20" r="20" transform="translate(-642 686)"/></g><g transform="translate(2562 -686)"><circle class="c" cx="20" cy="20" r="20" transform="translate(-642 686)"/></g><g transform="translate(642 -606)"><circle class="c" cx="20" cy="20" r="20" transform="translate(-642 686)"/></g><g transform="translate(722 -606)"><circle class="c" cx="20" cy="20" r="20" transform="translate(-642 686)"/></g><g transform="translate(802 -606)"><circle class="c" cx="20" cy="20" r="20" transform="translate(-642 686)"/></g><g transform="translate(882 -606)"><circle class="c" cx="20" cy="20" r="20" transform="translate(-642 686)"/></g><g transform="translate(962 -606)"><circle class="c" cx="20" cy="20" r="20" transform="translate(-642 686)"/></g><g transform="translate(1042 -606)"><circle class="c" cx="20" cy="20" r="20" transform="translate(-642 686)"/></g><g transform="translate(1122 -606)"><circle class="c" cx="20" cy="20" r="20" transform="translate(-642 686)"/></g><g transform="translate(1202 -606)"><circle class="c" cx="20" cy="20" r="20" transform="translate(-642 686)"/></g><g transform="translate(1282 -606)"><circle class="c" cx="20" cy="20" r="20" transform="translate(-642 686)"/></g><g transform="translate(1362 -606)"><circle class="c" cx="20" cy="20" r="20" transform="translate(-642 686)"/></g><g transform="translate(1442 -606)"><circle class="c" cx="20" cy="20" r="20" transform="translate(-642 686)"/></g><g transform="translate(1522 -606)"><circle class="c" cx="20" cy="20" r="20" transform="translate(-642 686)"/></g><g transform="translate(1602 -606)"><circle class="c" cx="20" cy="20" r="20" transform="translate(-642 686)"/></g><g transform="translate(1682 -606)"><circle class="c" cx="20" cy="20" r="20" transform="translate(-642 686)"/></g><g transform="translate(1762 -606)"><circle class="c" cx="20" cy="20" r="20" transform="translate(-642 686)"/></g><g transform="translate(1842 -606)"><circle class="c" cx="20" cy="20" r="20" transform="translate(-642 686)"/></g><g transform="translate(1922 -606)"><circle class="c" cx="20" cy="20" r="20" transform="translate(-642 686)"/></g><g transform="translate(2002 -606)"><circle class="c" cx="20" cy="20" r="20" transform="translate(-642 686)"/></g><g transform="translate(2082 -606)"><circle class="c" cx="20" cy="20" r="20" transform="translate(-642 686)"/></g><g transform="translate(2162 -606)"><circle class="c" cx="20" cy="20" r="20" transform="translate(-642 686)"/></g><g transform="translate(2242 -606)"><circle class="c" cx="20" cy="20" r="20" transform="translate(-642 686)"/></g><g transform="translate(2322 -606)"><circle class="c" cx="20" cy="20" r="20" transform="translate(-642 686)"/></g><g transform="translate(2402 -606)"><circle class="c" cx="20" cy="20" r="20" transform="translate(-642 686)"/></g><g transform="translate(2482 -606)"><circle class="c" cx="20" cy="20" r="20" transform="translate(-642 686)"/></g><g transform="translate(2562 -606)"><circle class="c" cx="20" cy="20" r="20" transform="translate(-642 686)"/></g><g transform="translate(642 -526)"><circle class="c" cx="20" cy="20" r="20" transform="translate(-642 686)"/></g><g transform="translate(722 -526)"><circle class="c" cx="20" cy="20" r="20" transform="translate(-642 686)"/></g><g transform="translate(802 -526)"><circle class="c" cx="20" cy="20" r="20" transform="translate(-642 686)"/></g><g transform="translate(882 -526)"><circle class="c" cx="20" cy="20" r="20" transform="translate(-642 686)"/></g><g transform="translate(962 -526)"><circle class="c" cx="20" cy="20" r="20" transform="translate(-642 686)"/></g><g transform="translate(1042 -526)"><circle class="c" cx="20" cy="20" r="20" transform="translate(-642 686)"/></g><g transform="translate(1122 -526)"><circle class="c" cx="20" cy="20" r="20" transform="translate(-642 686)"/></g><g transform="translate(1202 -526)"><circle class="c" cx="20" cy="20" r="20" transform="translate(-642 686)"/></g><g transform="translate(1282 -526)"><circle class="c" cx="20" cy="20" r="20" transform="translate(-642 686)"/></g><g transform="translate(1362 -526)"><circle class="c" cx="20" cy="20" r="20" transform="translate(-642 686)"/></g><g transform="translate(1442 -526)"><circle class="c" cx="20" cy="20" r="20" transform="translate(-642 686)"/></g><g transform="translate(1522 -526)"><circle class="c" cx="20" cy="20" r="20" transform="translate(-642 686)"/></g><g transform="translate(1602 -526)"><circle class="c" cx="20" cy="20" r="20" transform="translate(-642 686)"/></g><g transform="translate(1682 -526)"><circle class="c" cx="20" cy="20" r="20" transform="translate(-642 686)"/></g><g transform="translate(1762 -526)"><circle class="c" cx="20" cy="20" r="20" transform="translate(-642 686)"/></g><g transform="translate(1842 -526)"><circle class="c" cx="20" cy="20" r="20" transform="translate(-642 686)"/></g><g transform="translate(1922 -526)"><circle class="c" cx="20" cy="20" r="20" transform="translate(-642 686)"/></g><g transform="translate(2002 -526)"><circle class="c" cx="20" cy="20" r="20" transform="translate(-642 686)"/></g><g transform="translate(2082 -526)"><circle class="c" cx="20" cy="20" r="20" transform="translate(-642 686)"/></g><g transform="translate(2162 -526)"><circle class="c" cx="20" cy="20" r="20" transform="translate(-642 686)"/></g><g transform="translate(2242 -526)"><circle class="c" cx="20" cy="20" r="20" transform="translate(-642 686)"/></g><g transform="translate(2322 -526)"><circle class="c" cx="20" cy="20" r="20" transform="translate(-642 686)"/></g><g transform="translate(2402 -526)"><circle class="c" cx="20" cy="20" r="20" transform="translate(-642 686)"/></g><g transform="translate(2482 -526)"><circle class="c" cx="20" cy="20" r="20" transform="translate(-642 686)"/></g><g transform="translate(2562 -526)"><circle class="c" cx="20" cy="20" r="20" transform="translate(-642 686)"/></g><g transform="translate(642 -446)"><circle class="c" cx="20" cy="20" r="20" transform="translate(-642 686)"/></g><g transform="translate(722 -446)"><circle class="c" cx="20" cy="20" r="20" transform="translate(-642 686)"/></g><g transform="translate(802 -446)"><circle class="c" cx="20" cy="20" r="20" transform="translate(-642 686)"/></g><g transform="translate(882 -446)"><circle class="c" cx="20" cy="20" r="20" transform="translate(-642 686)"/></g><g transform="translate(962 -446)"><circle class="c" cx="20" cy="20" r="20" transform="translate(-642 686)"/></g><g transform="translate(1042 -446)"><circle class="c" cx="20" cy="20" r="20" transform="translate(-642 686)"/></g><g transform="translate(1122 -446)"><circle class="c" cx="20" cy="20" r="20" transform="translate(-642 686)"/></g><g transform="translate(1202 -446)"><circle class="c" cx="20" cy="20" r="20" transform="translate(-642 686)"/></g><g transform="translate(1282 -446)"><circle class="c" cx="20" cy="20" r="20" transform="translate(-642 686)"/></g><g transform="translate(1362 -446)"><circle class="c" cx="20" cy="20" r="20" transform="translate(-642 686)"/></g><g transform="translate(1442 -446)"><circle class="c" cx="20" cy="20" r="20" transform="translate(-642 686)"/></g><g transform="translate(1522 -446)"><circle class="c" cx="20" cy="20" r="20" transform="translate(-642 686)"/></g><g transform="translate(1602 -446)"><circle class="c" cx="20" cy="20" r="20" transform="translate(-642 686)"/></g><g transform="translate(1682 -446)"><circle class="c" cx="20" cy="20" r="20" transform="translate(-642 686)"/></g><g transform="translate(1762 -446)"><circle class="c" cx="20" cy="20" r="20" transform="translate(-642 686)"/></g><g transform="translate(1842 -446)"><circle class="c" cx="20" cy="20" r="20" transform="translate(-642 686)"/></g><g transform="translate(1922 -446)"><circle class="c" cx="20" cy="20" r="20" transform="translate(-642 686)"/></g><g transform="translate(2002 -446)"><circle class="c" cx="20" cy="20" r="20" transform="translate(-642 686)"/></g><g transform="translate(2082 -446)"><circle class="c" cx="20" cy="20" r="20" transform="translate(-642 686)"/></g><g transform="translate(2162 -446)"><circle class="c" cx="20" cy="20" r="20" transform="translate(-642 686)"/></g><g transform="translate(2242 -446)"><circle class="c" cx="20" cy="20" r="20" transform="translate(-642 686)"/></g><g transform="translate(2322 -446)"><circle class="c" cx="20" cy="20" r="20" transform="translate(-642 686)"/></g><g transform="translate(2402 -446)"><circle class="c" cx="20" cy="20" r="20" transform="translate(-642 686)"/></g><g transform="translate(2482 -446)"><circle class="c" cx="20" cy="20" r="20" transform="translate(-642 686)"/></g><g transform="translate(2562 -446)"><circle class="c" cx="20" cy="20" r="20" transform="translate(-642 686)"/></g><g transform="translate(642 -366)"><circle class="c" cx="20" cy="20" r="20" transform="translate(-642 686)"/></g><g transform="translate(722 -366)"><circle class="c" cx="20" cy="20" r="20" transform="translate(-642 686)"/></g><g transform="translate(802 -366)"><circle class="c" cx="20" cy="20" r="20" transform="translate(-642 686)"/></g><g transform="translate(882 -366)"><circle class="c" cx="20" cy="20" r="20" transform="translate(-642 686)"/></g><g transform="translate(962 -366)"><circle class="c" cx="20" cy="20" r="20" transform="translate(-642 686)"/></g><g transform="translate(1042 -366)"><circle class="c" cx="20" cy="20" r="20" transform="translate(-642 686)"/></g><g transform="translate(1122 -366)"><circle class="c" cx="20" cy="20" r="20" transform="translate(-642 686)"/></g><g transform="translate(1202 -366)"><circle class="c" cx="20" cy="20" r="20" transform="translate(-642 686)"/></g><g transform="translate(1282 -366)"><circle class="c" cx="20" cy="20" r="20" transform="translate(-642 686)"/></g><g transform="translate(1362 -366)"><circle class="c" cx="20" cy="20" r="20" transform="translate(-642 686)"/></g><g transform="translate(1442 -366)"><circle class="c" cx="20" cy="20" r="20" transform="translate(-642 686)"/></g><g transform="translate(1522 -366)"><circle class="c" cx="20" cy="20" r="20" transform="translate(-642 686)"/></g><g transform="translate(1602 -366)"><circle class="c" cx="20" cy="20" r="20" transform="translate(-642 686)"/></g><g transform="translate(1682 -366)"><circle class="c" cx="20" cy="20" r="20" transform="translate(-642 686)"/></g><g transform="translate(1762 -366)"><circle class="c" cx="20" cy="20" r="20" transform="translate(-642 686)"/></g><g transform="translate(1842 -366)"><circle class="c" cx="20" cy="20" r="20" transform="translate(-642 686)"/></g><g transform="translate(1922 -366)"><circle class="c" cx="20" cy="20" r="20" transform="translate(-642 686)"/></g><g transform="translate(2002 -366)"><circle class="c" cx="20" cy="20" r="20" transform="translate(-642 686)"/></g><g transform="translate(2082 -366)"><circle class="c" cx="20" cy="20" r="20" transform="translate(-642 686)"/></g><g transform="translate(2162 -366)"><circle class="c" cx="20" cy="20" r="20" transform="translate(-642 686)"/></g><g transform="translate(2242 -366)"><circle class="c" cx="20" cy="20" r="20" transform="translate(-642 686)"/></g><g transform="translate(2322 -366)"><circle class="c" cx="20" cy="20" r="20" transform="translate(-642 686)"/></g><g transform="translate(2402 -366)"><circle class="c" cx="20" cy="20" r="20" transform="translate(-642 686)"/></g><g transform="translate(2482 -366)"><circle class="c" cx="20" cy="20" r="20" transform="translate(-642 686)"/></g><g transform="translate(2562 -366)"><circle class="c" cx="20" cy="20" r="20" transform="translate(-642 686)"/></g><g transform="translate(642 -286)"><circle class="c" cx="20" cy="20" r="20" transform="translate(-642 686)"/></g><g transform="translate(722 -286)"><circle class="c" cx="20" cy="20" r="20" transform="translate(-642 686)"/></g><g transform="translate(802 -286)"><circle class="c" cx="20" cy="20" r="20" transform="translate(-642 686)"/></g><g transform="translate(882 -286)"><circle class="c" cx="20" cy="20" r="20" transform="translate(-642 686)"/></g><g transform="translate(962 -286)"><circle class="c" cx="20" cy="20" r="20" transform="translate(-642 686)"/></g><g transform="translate(1042 -286)"><circle class="c" cx="20" cy="20" r="20" transform="translate(-642 686)"/></g><g transform="translate(1122 -286)"><circle class="c" cx="20" cy="20" r="20" transform="translate(-642 686)"/></g><g transform="translate(1202 -286)"><circle class="c" cx="20" cy="20" r="20" transform="translate(-642 686)"/></g><g transform="translate(1282 -286)"><circle class="c" cx="20" cy="20" r="20" transform="translate(-642 686)"/></g><g transform="translate(1362 -286)"><circle class="c" cx="20" cy="20" r="20" transform="translate(-642 686)"/></g><g transform="translate(1442 -286)"><circle class="c" cx="20" cy="20" r="20" transform="translate(-642 686)"/></g><g transform="translate(1522 -286)"><circle class="c" cx="20" cy="20" r="20" transform="translate(-642 686)"/></g><g transform="translate(1602 -286)"><circle class="c" cx="20" cy="20" r="20" transform="translate(-642 686)"/></g><g transform="translate(1682 -286)"><circle class="c" cx="20" cy="20" r="20" transform="translate(-642 686)"/></g><g transform="translate(1762 -286)"><circle class="c" cx="20" cy="20" r="20" transform="translate(-642 686)"/></g><g transform="translate(1842 -286)"><circle class="c" cx="20" cy="20" r="20" transform="translate(-642 686)"/></g><g transform="translate(1922 -286)"><circle class="c" cx="20" cy="20" r="20" transform="translate(-642 686)"/></g><g transform="translate(2002 -286)"><circle class="c" cx="20" cy="20" r="20" transform="translate(-642 686)"/></g><g transform="translate(2082 -286)"><circle class="c" cx="20" cy="20" r="20" transform="translate(-642 686)"/></g><g transform="translate(2162 -286)"><circle class="c" cx="20" cy="20" r="20" transform="translate(-642 686)"/></g><g transform="translate(2242 -286)"><circle class="c" cx="20" cy="20" r="20" transform="translate(-642 686)"/></g><g transform="translate(2322 -286)"><circle class="c" cx="20" cy="20" r="20" transform="translate(-642 686)"/></g><g transform="translate(2402 -286)"><circle class="c" cx="20" cy="20" r="20" transform="translate(-642 686)"/></g><g transform="translate(2482 -286)"><circle class="c" cx="20" cy="20" r="20" transform="translate(-642 686)"/></g><g transform="translate(2562 -286)"><circle class="c" cx="20" cy="20" r="20" transform="translate(-642 686)"/></g><g transform="translate(642 -206)"><circle class="c" cx="20" cy="20" r="20" transform="translate(-642 686)"/></g><g transform="translate(722 -206)"><circle class="c" cx="20" cy="20" r="20" transform="translate(-642 686)"/></g><g transform="translate(802 -206)"><circle class="c" cx="20" cy="20" r="20" transform="translate(-642 686)"/></g><g transform="translate(882 -206)"><circle class="c" cx="20" cy="20" r="20" transform="translate(-642 686)"/></g><g transform="translate(962 -206)"><circle class="c" cx="20" cy="20" r="20" transform="translate(-642 686)"/></g><g transform="translate(1042 -206)"><circle class="c" cx="20" cy="20" r="20" transform="translate(-642 686)"/></g><g transform="translate(1122 -206)"><circle class="c" cx="20" cy="20" r="20" transform="translate(-642 686)"/></g><g transform="translate(1202 -206)"><circle class="c" cx="20" cy="20" r="20" transform="translate(-642 686)"/></g><g transform="translate(1282 -206)"><circle class="c" cx="20" cy="20" r="20" transform="translate(-642 686)"/></g><g transform="translate(1362 -206)"><circle class="c" cx="20" cy="20" r="20" transform="translate(-642 686)"/></g><g transform="translate(1442 -206)"><circle class="c" cx="20" cy="20" r="20" transform="translate(-642 686)"/></g><g transform="translate(1522 -206)"><circle class="c" cx="20" cy="20" r="20" transform="translate(-642 686)"/></g><g transform="translate(1602 -206)"><circle class="c" cx="20" cy="20" r="20" transform="translate(-642 686)"/></g><g transform="translate(1682 -206)"><circle class="c" cx="20" cy="20" r="20" transform="translate(-642 686)"/></g><g transform="translate(1762 -206)"><circle class="c" cx="20" cy="20" r="20" transform="translate(-642 686)"/></g><g transform="translate(1842 -206)"><circle class="c" cx="20" cy="20" r="20" transform="translate(-642 686)"/></g><g transform="translate(1922 -206)"><circle class="c" cx="20" cy="20" r="20" transform="translate(-642 686)"/></g><g transform="translate(2002 -206)"><circle class="c" cx="20" cy="20" r="20" transform="translate(-642 686)"/></g><g transform="translate(2082 -206)"><circle class="c" cx="20" cy="20" r="20" transform="translate(-642 686)"/></g><g transform="translate(2162 -206)"><circle class="c" cx="20" cy="20" r="20" transform="translate(-642 686)"/></g><g transform="translate(2242 -206)"><circle class="c" cx="20" cy="20" r="20" transform="translate(-642 686)"/></g><g transform="translate(2322 -206)"><circle class="c" cx="20" cy="20" r="20" transform="translate(-642 686)"/></g><g transform="translate(2402 -206)"><circle class="c" cx="20" cy="20" r="20" transform="translate(-642 686)"/></g><g transform="translate(2482 -206)"><circle class="c" cx="20" cy="20" r="20" transform="translate(-642 686)"/></g><g transform="translate(2562 -206)"><circle class="c" cx="20" cy="20" r="20" transform="translate(-642 686)"/></g></g></svg>