<svg xmlns="http://www.w3.org/2000/svg" width="2172.199" height="154.675" viewBox="0 0 2172.199 154.675"><defs><style>.a{fill:#427f80;}</style></defs><path class="a" d="M-87.854,233.906c13.171,0,346.341,0,359.512.007,66.589.015,1743.178.042,1809.767,0,2.185,0,3.045.459,2.782,2.745-.214,1.853.579,24.12-.244,25.52-.843,1.435-1613.281.344-1615.005.634-4.476.754-9.03.684-13.544,1.29a123.579,123.579,0,0,0-26.449,6.476,136.545,136.545,0,0,0-37.876,21.868c-14.645,11.677-27.525,25.192-40.637,38.485-12.786,12.963-26.04,25.433-41.372,35.459A131.6,131.6,0,0,1,260.4,386.141c-9.361,1.718-338.745,2.659-348.253,2.4V233.906Z" transform="translate(87.854 -233.906)"/></svg>