<svg xmlns="http://www.w3.org/2000/svg" width="2172.199" height="180.047" viewBox="0 0 2172.199 180.047"><defs><style>.a{fill:#427f80;}</style></defs><path class="a" d="M-87.854,413.953c13.171,0,346.341,0,359.512-.008,66.589-.018,1743.178-.049,1809.767,0,2.185,0,3.045-.535,2.782-3.2-.214-2.156.579-28.076-.244-29.707-.843-1.67-1613.281-.4-1615.005-.738-4.476-.877-9.03-.8-13.544-1.5a109.478,109.478,0,0,1-26.449-7.538c-13.875-5.958-26.351-14.758-37.876-25.455-14.645-13.592-27.525-29.325-40.637-44.8-12.786-15.089-26.04-29.605-41.372-41.276-14.926-11.363-31.059-19.231-48.681-23-9.361-2-338.745-3.1-348.253-2.789v180Z" transform="translate(2084.345 413.953) rotate(-180)"/></svg>