<svg xmlns="http://www.w3.org/2000/svg" width="25.481" height="63.333" viewBox="0 0 25.481 63.333"><defs><style>.a{opacity:0.9;}.b{fill:#02857e;fill-rule:evenodd;}</style></defs><g class="a" transform="translate(-28 -1)"><path class="b" d="M30.316,13.743h0V28.8a10.424,10.424,0,1,0,20.848,0V13.743a10.424,10.424,0,1,0-20.848,0Zm-2.316,0a12.741,12.741,0,1,1,25.481,0V28.8A12.741,12.741,0,1,1,28,28.8V13.743Z"/><path class="b" d="M48,16.163a1.158,1.158,0,1,1,2.316,0v4.623a1.158,1.158,0,1,1-2.316,0Z" transform="translate(-8.417 -5.892)"/><path class="b" d="M44.949,91.311l4.972-4.972a1.158,1.158,0,0,1,1.638,1.638l-5.791,5.791a1.158,1.158,0,0,1-1.638,0l-5.791-5.791a1.158,1.158,0,1,1,1.638-1.638Z" transform="translate(-4.209 -29.774)"/><path class="b" d="M44.949,78.311l4.972-4.972a1.158,1.158,0,0,1,1.638,1.638l-5.791,5.791a1.158,1.158,0,0,1-1.638,0l-5.791-5.791a1.158,1.158,0,1,1,1.638-1.638Z" transform="translate(-4.209 -24.303)"/></g></svg>