<svg xmlns="http://www.w3.org/2000/svg" width="245.455" height="143.514" viewBox="0 0 245.455 143.514"><defs><style>.a{fill:#FFFFFF;}</style></defs><g transform="translate(-232.146 -300.344)"><path class="a" d="M576.574,601.424c-1.457-1.051-3.22-.5-4.833-.909-10.4-2.611-15.21-11.836-13.464-21.682,1.535-8.655,8.741-13.384,16.219-14.64a28.813,28.813,0,0,1,12.508.236c8.221,2.254,13.1,9.7,12.848,18.379-.325,11.313-9.346,17.817-18.9,18.143-.489.017-1.184-.361-1.43.473Zm11.75-17.38a17.957,17.957,0,0,0-1.476-8.094c-1.387-3.646-5.282-6.392-8.613-6.312a8.5,8.5,0,0,0-8.135,6.272,15.988,15.988,0,0,0,2.951,15.972c4.494,5.379,12.309,3.857,14.613-2.747A10.512,10.512,0,0,0,588.324,584.044Z" transform="translate(-165.737 -157.565)"/><path class="a" d="M694.638,599.978c-2.943,0-5.889-.069-8.829.031-1.332.046-1.6-.414-1.606-1.656-.034-7.33.235-14.661-.331-21.988-.259-3.35-2.491-5.2-5.846-4.478-.708.153-1.453.161-2.144.363-5.678,1.656-6.28,2.474-6.28,8.38,0,5.871-.041,11.742.031,17.611.016,1.351-.307,1.835-1.732,1.769-2.529-.117-5.069-.087-7.6-.008-1.15.036-1.53-.267-1.524-1.474q.069-16.144-.009-32.288c-.008-1.4.528-1.588,1.7-1.553,2.287.069,4.585.133,6.865-.014,1.983-.128,2.751.376,1.913,2.391a6.212,6.212,0,0,0-.116,1.7c2.747-1.145,5.051-2.684,7.623-3.691a19.518,19.518,0,0,1,9.68-1.255c4.253.537,6.686,3.482,8.209,7.273Z" transform="translate(-217.038 -157.588)"/><path class="a" d="M232.146,592.221a4.51,4.51,0,0,1,5.028.272c3.586,2.342,7.757,2.421,11.88,2.141,2.108-.143,3.827-1.375,4.048-3.475.2-1.864-1.348-2.879-3.11-3.433-3.334-1.047-6.644-2.171-9.96-3.275-3.592-1.2-6.253-3.438-6.85-7.273a9.772,9.772,0,0,1,4.744-10.366,22.41,22.41,0,0,1,14.716-2.776c1.987.243,4.047-.013,6,.728.627.238,1.481.3,1.427,1.015-.109,1.423.557,2.688.564,4.071.013,2.386-1.423,3.346-3.59,2.293-3.523-1.713-7.132-2.8-11.116-1.968-1.545.322-2.726.9-2.98,2.632-.265,1.807.416,2.844,2.227,3.395,3.328,1.012,6.649,2.085,9.888,3.348,5.075,1.979,8.112,4.218,8.154,9.391.043,5.22-3.558,8.971-8.221,10.634a25.3,25.3,0,0,1-13.562,1.046c-1.654-.321-3.363-.348-5.038-.575-3.025-.411-3.6-1.075-3.765-4.115-.033-.605.279-1.333-.481-1.75Z" transform="translate(0 -157.664)"/><path class="a" d="M477.951,584.108c-.256-8.094,2.419-14.169,8.772-18.091,6.413-3.959,18.623-4.064,23.2,4.307a22.538,22.538,0,0,1,2.409,11.64c-.029,1.224-.82,1.194-1.663,1.238-6.174.321-12.346.669-18.521.972-3.407.167-3.823.758-2.609,3.925a8.082,8.082,0,0,0,7.7,5.407,21.775,21.775,0,0,0,12.256-2.994c1.142-.678,1.351-.158,1.7.6,1.663,3.675,1.514,4.073-2.159,5.98-6.215,3.225-12.7,4.653-19.714,3.278-7.339-1.439-11.187-8.075-11.364-14.524C477.931,585.036,477.951,584.219,477.951,584.108Zm15.15-5.315c1.331-.066,3.875-.726,6.487-.513.788.064,1.451-.274,1.323-1.28a21.05,21.05,0,0,0-.5-3.591,5.544,5.544,0,0,0-4.4-4.227,4.986,4.986,0,0,0-4.687,1.837,8.66,8.66,0,0,0-2.1,4.433C488.5,578.8,488.457,578.8,493.1,578.793Z" transform="translate(-125.042 -157.456)"/><path class="a" d="M433.1,562.925c0,4.161-.048,8.322.028,12.481.024,1.305-.212,1.893-1.7,1.809a54.1,54.1,0,0,0-6.866.006c-1.623.114-1.838-.514-1.827-1.931.065-8.24-.047-16.48.088-24.717.033-2.023-.64-2.564-2.443-2.282a1.548,1.548,0,0,1-.731-.006c-.913-.335-2.519.918-2.722-.9-.2-1.792-.772-4.09,2.158-4.367s3.977-1.613,3.743-4.66c-.807-10.517,7.5-16.745,15.512-18.924a15.294,15.294,0,0,1,12.058,1.638c1.627.939,1.83,2.131.737,3.613-.185.251-.29.558-.459.822-2.3,3.6-2.27,3.523-6.185,1.777-4.055-1.808-8.275-1.645-10.231,1.507-1.244,2-.861,4.4-1.039,6.61-.524,6.507-.431,6.514,6.1,6.514H440.8c4.706,0,4.659,0,4.585,4.768-.019,1.232-.271,1.7-1.607,1.65-2.941-.105-5.893.062-8.832-.071-1.577-.071-1.91.48-1.878,1.942C433.16,554.439,433.1,558.683,433.1,562.925Z" transform="translate(-93.915 -134.79)"/><path class="a" d="M328.568,563.805a16.405,16.405,0,0,1,8.16,1.4c2.644,1.181,3.071,2.735,1.392,5.126-2.7,3.849-3.433,3.953-7,1.995a12.15,12.15,0,0,0-9.6-.711,5.8,5.8,0,0,0-4.148,3.992,16.843,16.843,0,0,0,1.77,14.482,7.09,7.09,0,0,0,5.541,3.034,19.548,19.548,0,0,0,11.471-1.965c1.548-.849,1.756-.4,1.93,1.189.3,2.735-.814,4.167-3.207,5.382-5.556,2.821-11.291,4.163-17.444,2.829-7.827-1.7-10.927-8.056-11.265-14.368-.631-11.784,6.378-20.212,18.384-22.359A23.627,23.627,0,0,1,328.568,563.805Z" transform="translate(-37.637 -157.617)"/><path class="a" d="M394.857,583.39c0,5.294-.044,10.589.03,15.882.019,1.342-.291,1.844-1.724,1.773-2.444-.12-4.9-.076-7.348-.014-1.146.029-1.748-.109-1.74-1.533q.092-16.126.01-32.253c0-1.166.327-1.562,1.509-1.527,2.53.075,5.067.113,7.593-.012,1.473-.073,1.715.5,1.7,1.8C394.817,572.8,394.857,578.1,394.857,583.39Z" transform="translate(-77.292 -158.622)"/><path class="a" d="M389.257,529.739c-3.183.518-6.26-2.733-6.221-5.857a6.317,6.317,0,0,1,6.105-5.925,5.89,5.89,0,0,1,6.067,6.116C395.2,527.5,391.956,530.23,389.257,529.739Z" transform="translate(-76.764 -134.331)"/><path class="a" d="M495.629,449.144c-.213,3.837-.856,6.665-3.524,8.563a5.283,5.283,0,0,1-7.57-1.144,12.2,12.2,0,0,1-.213-13.682,5.72,5.72,0,0,1,9.222-.125A11.817,11.817,0,0,1,495.629,449.144Z" transform="translate(-127.277 -94.918)"/><path class="a" d="M714.955,449.548a14.214,14.214,0,0,1-2.44,6.978,5.487,5.487,0,0,1-8.033.749c-3.995-3.393-3.807-11.96-.284-15.366a5.5,5.5,0,0,1,8.586.921A14.531,14.531,0,0,1,714.955,449.548Z" transform="translate(-238.789 -94.804)"/><path class="a" d="M590.042,358.142a9.046,9.046,0,0,1-1.458,5.985c-2.84,4.52-7.737,4.361-10.305-.342a11.034,11.034,0,0,1,.333-11.795c2.616-4.2,7.514-4.032,10,.271A9.279,9.279,0,0,1,590.042,358.142Z" transform="translate(-175.305 -48.345)"/><path class="a" d="M581.865,449.625a9.57,9.57,0,0,1,2.384-7.164c2.867-3.186,5.7-3.142,8.581.076,3.044,3.4,3.108,10.332.126,13.759-2.952,3.392-7.259,3.02-9.572-.884A9.772,9.772,0,0,1,581.865,449.625Z" transform="translate(-177.901 -94.723)"/><path class="a" d="M689.054,358.028a9.051,9.051,0,0,1-1.262,5.925c-1.217,2.058-2.9,3.417-5.4,3.336-2.575-.083-4.116-1.751-5.172-3.827a11.633,11.633,0,0,1,.084-10.975,5.983,5.983,0,0,1,5.468-3.674c2.41.013,4.112,1.77,5.229,3.835A7.792,7.792,0,0,1,689.054,358.028Z" transform="translate(-225.745 -48.282)"/><path class="a" d="M641.827,449.465a9.212,9.212,0,0,1,1.656-6.262c2.9-4.148,7.636-3.97,10.063.5a11.171,11.171,0,0,1-.23,11.811c-2.706,4.405-7.494,4.261-10.1-.243A9.022,9.022,0,0,1,641.827,449.465Z" transform="translate(-208.385 -94.783)"/><path class="a" d="M639.871,357.808c0,2.526-.076,5.054.03,7.575.058,1.367-.333,1.768-1.737,1.766-4.023-.005-4.023.066-4.023-3.91,0-4.155.086-8.312-.04-12.463-.056-1.829.49-2.569,2.34-2.28a7.147,7.147,0,0,0,1.956,0c1.191-.147,1.535.322,1.5,1.491C639.815,352.592,639.871,355.2,639.871,357.808Z" transform="translate(-204.489 -48.09)"/><path class="a" d="M660.7,357.877c0,2.524-.083,5.052.032,7.571.065,1.41-.406,1.735-1.766,1.735-4.153,0-4.153.063-4.153-3.968,0-4.234.079-8.47-.04-12.7-.046-1.63.462-2.032,2.042-2.005,3.882.067,3.884-.014,3.884,3.749Z" transform="translate(-215.004 -48.127)"/><path class="a" d="M521.9,449.273c0-2.437.072-4.877-.029-7.31-.055-1.33.275-1.787,1.708-1.785,4.05,0,4.05-.071,4.05,3.864,0,4.305-.067,8.612.036,12.915.036,1.5-.383,1.92-1.9,1.907-3.869-.034-3.87.047-3.87-3.742Z" transform="translate(-147.392 -94.764)"/><path class="a" d="M684.846,449.511c0,2.437-.084,4.878.031,7.31.072,1.508-.253,2.093-1.944,2.049-3.814-.1-3.817,0-3.817-3.859,0-4.305.064-8.612-.035-12.915-.034-1.484.349-1.935,1.883-1.92,3.881.035,3.882-.049,3.882,3.731Z" transform="translate(-227.372 -94.762)"/><path class="a" d="M619.231,357.856c0,2.529-.081,5.06.032,7.584.062,1.4-.376,1.9-1.761,1.728a12.3,12.3,0,0,0-2.45,0c-.949.075-1.267-.263-1.261-1.23q.059-8.074,0-16.149c-.006-.949.3-1.317,1.261-1.244a15.344,15.344,0,0,0,2.7,0c1.186-.121,1.543.314,1.505,1.491C619.174,352.634,619.231,355.246,619.231,357.856Z" transform="translate(-194.158 -48.132)"/><path class="a" d="M718.185,358c0,2.445-.112,4.9.04,7.335.1,1.579-.451,2.017-1.915,1.826a11.961,11.961,0,0,0-2.448-.006c-.9.069-1.092-.339-1.088-1.147q.038-8.192,0-16.385c0-.88.333-1.134,1.153-1.088a15.046,15.046,0,0,0,2.695-.01c1.359-.169,1.629.432,1.592,1.65C718.13,352.777,718.185,355.388,718.185,358Z" transform="translate(-244.512 -48.12)"/><path class="a" d="M619.826,449.3c0-2.447.071-4.9-.029-7.339-.055-1.33.262-1.971,1.714-1.771a9.19,9.19,0,0,0,2.2,0c1.134-.12,1.555.223,1.539,1.451-.068,5.219-.058,10.44-.005,15.659.011,1.121-.222,1.678-1.463,1.524a9.115,9.115,0,0,0-2.2,0c-1.342.163-1.857-.256-1.79-1.7C619.912,454.523,619.826,451.909,619.826,449.3Z" transform="translate(-197.207 -94.751)"/><path class="a" d="M557.176,449.56a9.175,9.175,0,0,1-2.9,7.579,5.072,5.072,0,0,1-7.629-.211c-3.759-3.876-3.611-11.3.3-15.044a5.254,5.254,0,0,1,8.17.693C556.7,444.688,557.176,446.291,557.176,449.56Z" transform="translate(-158.611 -94.801)"/></g></svg>